<?xml version="1.0" standalone="no"?>
<!DOCTYPE svg PUBLIC "-//W3C//DTD SVG 20010904//EN"
 "http://www.w3.org/TR/2001/REC-SVG-20010904/DTD/svg10.dtd">
<svg version="1.0" xmlns="http://www.w3.org/2000/svg"
 width="700.000000pt" height="700.000000pt" viewBox="0 0 700.000000 700.000000"
 preserveAspectRatio="xMidYMid meet">
<metadata>
Created by potrace 1.11, written by Peter Selinger 2001-2013
</metadata>
<g transform="translate(0.000000,700.000000) scale(0.100000,-0.100000)"
fill="#000000" stroke="none">
<path d="M2103 5932 c-109 -27 -193 -97 -242 -202 -20 -44 -26 -73 -28 -140
-2 -87 9 -134 127 -530 27 -94 141 -490 150 -525 4 -16 74 -259 155 -540 81
-280 151 -523 155 -540 12 -45 70 -246 81 -280 13 -40 120 -415 126 -440 3
-11 13 -47 23 -80 22 -74 13 -42 230 -800 201 -703 199 -698 246 -776 164
-274 479 -310 712 -81 44 43 371 470 923 1205 470 626 861 1148 869 1160 19
28 493 660 500 667 19 19 451 603 464 628 50 97 52 241 5 332 -62 119 -173
189 -311 197 -81 4 -90 2 -398 -87 -173 -51 -328 -96 -345 -100 -16 -5 -156
-45 -310 -90 -363 -107 -440 -127 -555 -144 -93 -13 -335 -14 -410 -1 -162 28
-219 41 -324 76 -67 21 -184 70 -261 108 -116 58 -177 98 -355 232 -118 89
-368 277 -555 417 -187 141 -342 258 -345 262 -13 15 -86 51 -133 65 -75 21
-127 23 -194 7z"/>
<path d="M4745 5942 c-79 -15 -181 -72 -300 -169 -6 -4 -82 -62 -170 -128 -88
-66 -162 -122 -165 -125 -3 -3 -97 -75 -210 -160 -291 -218 -310 -234 -302
-241 4 -4 50 -30 103 -58 165 -88 315 -141 499 -177 14 -3 36 -7 50 -10 14 -3
99 -8 190 -10 199 -4 283 8 487 68 58 17 74 26 82 47 5 14 42 140 81 280 75
267 84 331 60 423 -38 142 -178 256 -322 262 -35 1 -72 0 -83 -2z"/>
<path d="M650 5178 c-106 -19 -207 -96 -254 -193 -29 -58 -36 -91 -37 -161 -1
-96 30 -170 121 -289 25 -33 183 -242 351 -465 167 -223 309 -412 316 -420 19
-23 553 -732 572 -758 9 -13 31 -42 49 -65 17 -23 35 -47 40 -52 6 -8 56 -75
194 -260 4 -5 18 -23 31 -40 13 -16 216 -286 452 -600 235 -314 432 -574 438
-580 12 -12 15 -25 -53 209 -28 98 -53 186 -56 195 -2 9 -10 39 -18 66 -226
783 -359 1246 -378 1315 -10 41 -21 77 -23 81 -3 3 -11 31 -19 60 -8 30 -35
124 -59 209 -25 85 -52 180 -60 210 -8 30 -44 156 -80 280 -169 583 -220 759
-233 810 -37 137 -30 128 -103 151 -69 21 -563 165 -616 179 -16 4 -119 33
-228 65 -201 58 -267 68 -347 53z"/>
</g>
</svg>
