<?xml version="1.0" encoding="UTF-8" standalone="no"?>
<svg
   xmlns:dc="http://purl.org/dc/elements/1.1/"
   xmlns:cc="http://creativecommons.org/ns#"
   xmlns:rdf="http://www.w3.org/1999/02/22-rdf-syntax-ns#"
   xmlns:svg="http://www.w3.org/2000/svg"
   xmlns="http://www.w3.org/2000/svg"
   xmlns:sodipodi="http://sodipodi.sourceforge.net/DTD/sodipodi-0.dtd"
   xmlns:inkscape="http://www.inkscape.org/namespaces/inkscape"
   version="1.1"
   preserveAspectRatio="xMidYMid meet"
   viewBox="320 160 640 320"
   width="640"
   height="640"
   id="svg931"
   sodipodi:docname="veneu-logo.svg"
   inkscape:version="0.92.5 (2060ec1f9f, 2020-04-08)"
   inkscape:export-filename="/home/thestopsign/veneu/src/assets/veneu-logo-1280x640.png"
   inkscape:export-xdpi="96"
   inkscape:export-ydpi="96">
  <metadata
     id="metadata935">
    <rdf:RDF>
      <cc:Work
         rdf:about="">
        <dc:format>image/svg+xml</dc:format>
        <dc:type
           rdf:resource="http://purl.org/dc/dcmitype/StillImage" />
        <dc:title></dc:title>
      </cc:Work>
    </rdf:RDF>
  </metadata>
  <sodipodi:namedview
     pagecolor="#f8f8f8"
     bordercolor="#666666"
     borderopacity="1"
     objecttolerance="10"
     gridtolerance="10"
     guidetolerance="10"
     inkscape:pageopacity="0"
     inkscape:pageshadow="2"
     inkscape:window-width="1920"
     inkscape:window-height="1011"
     id="namedview933"
     showgrid="false"
     inkscape:zoom="0.70710678"
     inkscape:cx="188.82483"
     inkscape:cy="298.04252"
     inkscape:window-x="1920"
     inkscape:window-y="32"
     inkscape:window-maximized="1"
     inkscape:current-layer="g5080">
    <inkscape:grid
       type="xygrid"
       id="grid860" />
  </sodipodi:namedview>
  <defs
     id="defs913">
    <path
       d="m 435.56,78.67 0.81,0.17 0.77,0.22 0.72,0.3 0.66,0.35 0.61,0.41 0.56,0.48 0.51,0.55 0.46,0.6 0.4,0.67 0.36,0.73 0.3,0.8 0.25,0.85 0.2,0.93 0.15,0.98 0.09,1.05 0.05,1.11 -0.01,1.17 -0.06,1.24 -0.11,1.29 -0.16,1.37 -0.22,1.42 -0.26,1.49 -0.35,1.76 -0.46,2.25 -0.57,2.74 -0.68,3.22 -0.79,3.71 -0.9,4.19 -1.01,4.68 -1.12,5.16 -1.23,5.65 -1.34,6.14 -1.46,6.62 -1.56,7.11 -1.67,7.6 -1.79,8.08 -1.89,8.57 -2.01,9.05 -2.12,9.54 -2.22,10.03 -2.34,10.51 -2.45,11 -2.56,11.48 -2.67,11.97 -2.78,12.46 -2.89,12.94 -3,13.43 -3.12,13.91 -3.22,14.4 -3.33,14.89 -3.45,15.37 -3.55,15.86 -3.67,16.34 -3.77,16.83 -3.89,17.32 -4,17.8 -4.11,18.29 -4.21,18.77 -4.33,19.27 -4.44,19.74 -4.55,20.23 -4.67,20.72 -0.02,0.53 -0.06,0.52 -0.07,0.52 -0.1,0.5 -0.13,0.5 -0.14,0.49 -0.18,0.48 -0.19,0.47 -0.22,0.47 -0.24,0.46 -0.26,0.45 -0.29,0.44 -0.32,0.44 -0.33,0.42 -0.36,0.42 -0.38,0.41 -0.41,0.41 -0.43,0.4 -0.46,0.38 -0.47,0.38 -0.5,0.38 -0.53,0.36 -0.55,0.36 -0.57,0.35 -0.6,0.34 -0.62,0.33 -0.64,0.33 -0.66,0.32 -0.69,0.31 -0.72,0.3 -0.74,0.3 -0.39,0.15 -0.32,0.34 -0.9,0.41 -0.95,0.22 -0.93,0.19 -0.92,0.18 -0.25,0.05 -0.25,0.07 -0.91,0.24 -0.92,0.23 -0.95,0.22 -0.99,0.02 -0.43,-0.16 -0.43,0.03 -0.79,0.06 -0.77,0.04 -0.76,0.02 -0.74,0.01 -0.72,-0.01 -0.7,-0.03 -0.69,-0.05 -0.66,-0.07 -0.65,-0.08 -0.64,-0.1 -0.61,-0.11 -0.6,-0.14 -0.57,-0.15 -0.56,-0.17 -0.55,-0.18 -0.52,-0.2 -0.51,-0.22 -0.49,-0.24 -0.47,-0.26 -0.45,-0.27 -0.44,-0.29 -0.41,-0.3 -0.4,-0.33 -0.39,-0.34 -0.36,-0.36 -0.35,-0.37 -0.33,-0.4 -0.31,-0.41 -0.29,-0.43 -0.27,-0.44 -0.26,-0.46 -13.25,-16.6 -12.94,-16.21 -12.62,-15.82 -12.32,-15.43 -12,-15.04 -11.69,-14.65 -11.38,-14.26 -11.06,-13.88 -10.76,-13.49 -10.44,-13.09 -10.13,-12.71 -9.81,-12.32 -9.51,-11.93 -9.19,-11.55 -8.89,-11.15 -8.57,-10.76 -8.25,-10.38 -7.95,-9.99 -7.63,-9.6 -7.33,-9.2 -7.01,-8.83 -6.69,-8.43 -6.39,-8.04 -6.07,-7.66 -5.77,-7.26 -5.45,-6.88 -5.14,-6.49 -4.82,-6.1 -4.52,-5.71 -4.2,-5.32 -3.89,-4.93 -3.58,-4.54 -3.26,-4.16 -2.96,-3.77 -2.64,-3.37 -2.33,-2.99 -2.02,-2.6 -1.71,-2.22 -1.39,-1.82 -1.08,-1.43 -0.89,-1.22 -0.82,-1.19 -0.74,-1.16 -0.67,-1.12 -0.59,-1.08 -0.52,-1.05 -0.45,-1.02 -0.37,-0.98 -0.3,-0.95 -0.22,-0.92 -0.15,-0.88 -0.08,-0.85 v -0.81 l 0.08,-0.78 0.14,-0.74 0.22,-0.71 0.3,-0.68 0.37,-0.64 0.44,-0.61 0.51,-0.57 0.59,-0.54 0.67,-0.51 0.74,-0.47 0.81,-0.44 0.89,-0.4 0.96,-0.37 1.03,-0.33 1.11,-0.3 1.18,-0.27 1.26,-0.23 1.33,-0.2 1.4,-0.16 1.48,-0.13 1.55,-0.1 1.63,-0.06 1.7,-0.03 1.77,0.01 1.85,0.04 1.93,0.08 1.99,0.1 211.92,68.18 160.79,-153.96 1.75,-0.97 1.7,-0.91 1.64,-0.84 1.6,-0.78 1.54,-0.72 1.49,-0.66 1.43,-0.59 1.39,-0.53 1.34,-0.47 1.28,-0.4 1.23,-0.34 1.18,-0.28 1.13,-0.21 1.08,-0.15 1.02,-0.09 0.97,-0.03 0.93,0.04 z"
       id="b3eLhFgD6R"
       inkscape:connector-curvature="0" />
    <path
       d="m 207.84,78.53 1.08,0.15 1.13,0.21 1.18,0.27 1.23,0.34 1.29,0.4 1.33,0.46 1.39,0.52 1.44,0.59 1.49,0.65 1.55,0.71 1.59,0.78 1.65,0.84 1.7,0.9 1.75,0.96 161.39,153.34 211.65,-68.99 2,-0.12 1.92,-0.08 1.85,-0.05 1.77,-0.01 1.7,0.02 1.63,0.05 1.55,0.09 1.48,0.13 1.41,0.15 1.33,0.2 1.25,0.22 1.19,0.27 1.11,0.29 1.03,0.33 0.97,0.37 0.88,0.4 0.82,0.43 0.74,0.47 0.66,0.5 0.6,0.54 0.52,0.57 0.44,0.61 0.37,0.64 0.3,0.67 0.22,0.71 0.15,0.75 0.08,0.77 v 0.82 l -0.08,0.84 -0.14,0.89 -0.22,0.91 -0.3,0.95 -0.36,0.99 -0.45,1.02 -0.51,1.05 -0.59,1.09 -0.66,1.12 -0.74,1.16 -0.81,1.19 -0.89,1.22 -1.07,1.44 -1.39,1.83 -1.7,2.22 -2.01,2.61 -2.32,2.99 -2.63,3.39 -2.94,3.78 -3.25,4.17 -3.56,4.56 -3.87,4.94 -4.18,5.34 -4.49,5.73 -4.81,6.12 -5.11,6.51 -5.42,6.89 -5.74,7.29 -6.04,7.68 -6.36,8.07 -6.66,8.46 -6.98,8.84 -7.28,9.24 -7.6,9.63 -7.91,10.02 -8.22,10.4 -8.53,10.8 -8.83,11.19 -9.15,11.58 -9.46,11.96 -9.77,12.36 -10.08,12.75 -10.4,13.14 -10.7,13.53 -11.01,13.91 -11.32,14.31 -11.63,14.7 -11.95,15.09 -12.25,15.47 -12.57,15.87 -12.87,16.26 -13.19,16.65 -0.25,0.46 -0.28,0.45 -0.29,0.42 -0.31,0.42 -0.32,0.39 -0.35,0.38 -0.36,0.36 -0.38,0.34 -0.4,0.33 -0.42,0.3 -0.43,0.3 -0.45,0.27 -0.47,0.26 -0.49,0.24 -0.51,0.22 -0.52,0.2 -0.54,0.19 -0.56,0.17 -0.58,0.15 -0.6,0.14 -0.61,0.12 -0.63,0.1 -0.65,0.08 -0.67,0.07 -0.68,0.05 -0.7,0.03 -0.72,0.02 h -0.74 l -0.76,-0.02 -0.77,-0.04 -0.8,-0.05 -0.42,-0.04 -0.44,0.17 -0.98,-0.02 -0.95,-0.22 -0.93,-0.23 -0.9,-0.23 -0.25,-0.07 -0.26,-0.05 -0.91,-0.17 -0.94,-0.2 -0.95,-0.2 -0.9,-0.42 -0.32,-0.33 -0.4,-0.15 -0.73,-0.3 -0.72,-0.3 -0.69,-0.3 -0.67,-0.32 -0.64,-0.32 -0.62,-0.33 -0.6,-0.34 -0.57,-0.35 -0.55,-0.36 -0.53,-0.36 -0.5,-0.37 -0.48,-0.38 -0.46,-0.39 -0.43,-0.39 -0.41,-0.4 -0.38,-0.41 -0.36,-0.42 -0.34,-0.43 -0.31,-0.43 -0.3,-0.44 -0.26,-0.45 -0.25,-0.46 -0.22,-0.47 -0.19,-0.47 -0.17,-0.48 -0.15,-0.49 -0.13,-0.5 -0.1,-0.5 -0.08,-0.51 -0.05,-0.52 -0.04,-0.53 -4.74,-20.7 -4.62,-20.22 -4.52,-19.73 -4.4,-19.24 -4.3,-18.76 -4.17,-18.27 -4.07,-17.79 -3.95,-17.3 -3.84,-16.82 -3.73,-16.33 -3.62,-15.84 -3.5,-15.36 -3.39,-14.87 -3.28,-14.39 -3.17,-13.9 -3.05,-13.42 -2.94,-12.93 -2.83,-12.44 -2.72,-11.96 -2.6,-11.48 -2.49,-10.99 -2.38,-10.5 -2.27,-10.02 -2.15,-9.53 -2.04,-9.04 -1.93,-8.56 -1.82,-8.08 -1.7,-7.59 -1.59,-7.1 -1.48,-6.62 -1.37,-6.13 -1.25,-5.65 -1.14,-5.16 -1.03,-4.67 -0.92,-4.19 -0.8,-3.71 -0.69,-3.21 -0.58,-2.74 -0.47,-2.24 -0.35,-1.77 -0.27,-1.48 -0.22,-1.43 -0.17,-1.36 -0.11,-1.3 -0.07,-1.23 -0.01,-1.18 0.04,-1.11 0.09,-1.04 0.14,-0.99 0.2,-0.92 0.25,-0.86 0.3,-0.79 0.35,-0.74 0.4,-0.67 0.45,-0.61 0.51,-0.54 0.56,-0.48 0.61,-0.42 0.66,-0.36 0.72,-0.29 0.76,-0.23 0.82,-0.17 0.87,-0.1 0.92,-0.04 0.97,0.02 z"
       id="bNmUTvdyB"
       inkscape:connector-curvature="0" />
    <path
       d="m 322.13,561.5 -0.8,-0.05 -0.26,-0.01 h -0.18 l 0.1,-0.04 0.42,0.04 0.75,0.05 v 0 z m -17.57,-6.24 0.48,0.37 0.5,0.37 0.53,0.37 0.55,0.35 0.57,0.35 0.6,0.34 0.62,0.33 0.64,0.33 0.67,0.31 0.69,0.31 0.72,0.3 0.73,0.29 0.4,0.15 0.32,0.34 0.9,0.41 0.95,0.21 0.94,0.19 0.91,0.18 0.26,0.04 0.25,0.07 0.9,0.24 0.93,0.23 0.51,0.12 h -0.21 l -0.98,-0.02 -0.95,-0.22 -0.38,-0.27 -0.43,-0.07 -0.78,-0.13 -0.76,-0.15 -0.74,-0.17 -0.72,-0.17 -0.69,-0.19 -0.68,-0.2 -0.65,-0.22 -0.63,-0.22 -0.61,-0.24 -0.59,-0.25 -0.56,-0.26 -0.55,-0.28 -0.52,-0.29 -0.51,-0.3 -0.48,-0.31 -0.46,-0.32 -0.43,-0.34 -0.42,-0.35 -0.39,-0.36 -0.38,-0.38 -0.35,-0.38 -0.33,-0.4 -0.31,-0.41 -0.22,-0.33 0.25,0.24 0.43,0.4 v 0 z m -72.75,-307.01 2.83,12.45 2.94,12.93 3.05,13.41 3.17,13.91 3.28,14.38 3.39,14.88 3.5,15.35 3.62,15.85 3.73,16.33 3.84,16.82 3.95,17.3 4.07,17.78 4.17,18.28 4.3,18.75 4.4,19.25 4.52,19.73 4.62,20.21 4.66,20.34 -6.69,-14.72 -8.59,-18.88 -8.37,-18.42 -8.17,-17.97 -7.96,-17.52 -7.75,-17.07 -7.55,-16.61 -7.34,-16.16 -7.13,-15.71 -6.92,-15.25 -6.72,-14.8 -6.51,-14.34 -6.3,-13.9 -6.09,-13.43 -5.89,-12.99 -5.68,-12.53 -5.47,-12.08 -5.26,-11.63 -5.06,-11.17 -4.85,-10.72 -4.64,-10.27 -4.44,-9.81 -4.22,-9.36 -4.02,-8.91 -2.43,-5.4 82.57,26.57 0.72,3.17 v 0 z m 186.66,-45.3 -2.34,10.51 -2.45,11 -1.85,8.3 -22.8,7.44 -27.75,-26.37 62.68,-35.62 -1.15,5.17 -2.12,9.54 v 0 z"
       id="m2vIXQ4mH"
       inkscape:connector-curvature="0" />
    <filter
       style="color-interpolation-filters:sRGB"
       inkscape:label="Drop Shadow"
       id="filter964">
      <feFlood
         flood-opacity="0.690196"
         flood-color="rgb(6,54,149)"
         result="flood"
         id="feFlood954" />
      <feComposite
         in="flood"
         in2="SourceGraphic"
         operator="in"
         result="composite1"
         id="feComposite956" />
      <feGaussianBlur
         in="composite1"
         stdDeviation="7.7"
         result="blur"
         id="feGaussianBlur958" />
      <feOffset
         dx="7"
         dy="7"
         result="offset"
         id="feOffset960" />
      <feComposite
         in="offset"
         in2="offset"
         operator="atop"
         result="composite2"
         id="feComposite962" />
    </filter>
    <filter
       style="color-interpolation-filters:sRGB"
       inkscape:label="Drop Shadow"
       id="filter964-3">
      <feFlood
         flood-opacity="0.690196"
         flood-color="rgb(6,54,149)"
         result="flood"
         id="feFlood954-6" />
      <feComposite
         in="flood"
         in2="SourceGraphic"
         operator="in"
         result="composite1"
         id="feComposite956-7" />
      <feGaussianBlur
         in="composite1"
         stdDeviation="7.7"
         result="blur"
         id="feGaussianBlur958-5" />
      <feOffset
         dx="7"
         dy="7"
         result="offset"
         id="feOffset960-3" />
      <feComposite
         in="offset"
         in2="offset"
         operator="atop"
         result="composite2"
         id="feComposite962-5" />
    </filter>
    <filter
       style="color-interpolation-filters:sRGB"
       inkscape:label="Drop Shadow"
       id="filter1012">
      <feFlood
         flood-opacity="0.690196"
         flood-color="rgb(138, 0, 15)"
         result="flood"
         id="feFlood1002" />
      <feComposite
         in="flood"
         in2="SourceGraphic"
         operator="in"
         result="composite1"
         id="feComposite1004" />
      <feGaussianBlur
         in="composite1"
         stdDeviation="7.7"
         result="blur"
         id="feGaussianBlur1006" />
      <feOffset
         dx="7"
         dy="7"
         result="offset"
         id="feOffset1008" />
      <feComposite
         in="offset"
         in2="offset"
         operator="atop"
         result="composite2"
         id="feComposite1010" />
    </filter>
    <filter
       style="color-interpolation-filters:sRGB"
       inkscape:label="Drop Shadow"
       id="filter1012-9">
      <feFlood
         flood-opacity="0.690196"
         flood-color="rgb(138, 0, 15)"
         result="flood"
         id="feFlood1002-1" />
      <feComposite
         in="flood"
         in2="SourceGraphic"
         operator="in"
         result="composite1"
         id="feComposite1004-2" />
      <feGaussianBlur
         in="composite1"
         stdDeviation="7.7"
         result="blur"
         id="feGaussianBlur1006-7" />
      <feOffset
         dx="7"
         dy="7"
         result="offset"
         id="feOffset1008-0" />
      <feComposite
         in="offset"
         in2="offset"
         operator="atop"
         result="composite2"
         id="feComposite1010-9" />
    </filter>
    <filter
       style="color-interpolation-filters:sRGB"
       inkscape:label="Drop Shadow"
       id="filter1890">
      <feFlood
         flood-opacity="1"
         flood-color="rgb(255,255,255)"
         result="flood"
         id="feFlood1880" />
      <feComposite
         in="flood"
         in2="SourceGraphic"
         operator="out"
         result="composite1"
         id="feComposite1882" />
      <feGaussianBlur
         in="composite1"
         stdDeviation="10"
         result="blur"
         id="feGaussianBlur1884" />
      <feOffset
         dx="0"
         dy="0"
         result="offset"
         id="feOffset1886" />
      <feComposite
         in="offset"
         in2="SourceGraphic"
         operator="atop"
         result="composite2"
         id="feComposite1888" />
    </filter>
  </defs>
  <g
     id="g925" />
  <g
     id="g5080"
     transform="matrix(0.90882531,0,0,0.90882531,58.322586,55.188476)">
    <path
       style="fill:#8a2b36;fill-opacity:1;stroke:none;stroke-width:1.65337944px;stroke-linecap:butt;stroke-linejoin:miter;stroke-opacity:1"
       d="M 440.29102 96.365234 C 428.31988 96.108545 419.18945 102.57617 419.18945 102.57617 C 419.18945 102.57617 380.77184 131.63935 327.99609 171.56055 C 342.57486 180.81916 389.99499 206.63956 444.80859 190.79102 C 452.37961 188.60197 450.32047 189.19795 457.30078 187.17969 L 471.24414 138.29883 C 471.24414 138.29883 477.06631 115.3535 457.78711 102.12305 C 451.76236 97.988528 445.73244 96.481911 440.29102 96.365234 z M 66.630859 165.86914 C 58.745593 165.85817 46.681147 168.10284 38.412109 180.15234 C 25.181649 199.43154 38.865234 218.74805 38.865234 218.74805 L 268.35547 523.27539 L 174.16602 195.29297 L 74.587891 166.69336 C 74.587891 166.69336 71.362019 165.87572 66.630859 165.86914 z "
       id="path908"
       transform="matrix(1.1003215,0,0,1.1003215,287.92928,-60.725065)" />
    <path
       inkscape:transform-center-x="-73.688911"
       style="fill:#1a4974;fill-opacity:1;stroke:none;stroke-width:1.81924891px;stroke-linecap:butt;stroke-linejoin:miter;stroke-opacity:1"
       d="m 530,52.336519 107.20593,80.796161 c 0,0 64.9733,48.96738 143.13119,26.36917 78.15787,-22.59821 128.96049,-37.28705 128.96049,-37.28705 0,0 25.2365,-6.44985 39.83176,14.7377 14.59525,21.18753 -0.42458,42.46866 -0.42458,42.46866 L 679.05461,538.56344 c 0,0 -19.25734,24.20017 -46.09443,19.25596 -26.83709,-4.94422 -36.20599,-34.41823 -36.20599,-34.41823 L 472.79364,91.743698 c 0,0 -6.44986,-25.236508 14.73768,-39.831751 C 508.71887,37.316695 530,52.336519 530,52.336519 Z"
       id="path1373"
       inkscape:connector-curvature="0"
       inkscape:transform-center-y="-217.59795" />
  </g>
</svg>
